<?xml version="1.0" encoding="utf-8"?>
<!-- Generator: Adobe Illustrator 27.6.1, SVG Export Plug-In . SVG Version: 6.00 Build 0)  -->
<svg version="1.1" id="Layer_1" xmlns="http://www.w3.org/2000/svg" xmlns:xlink="http://www.w3.org/1999/xlink" x="0px" y="0px"
	 viewBox="0 0 595.3 637.8" style="enable-background:new 0 0 595.3 637.8;" xml:space="preserve">
<style type="text/css">
	.st0{fill:#B39634;}
</style>
<g>
	<path class="st0" d="M511.4,153.9c-3.2,17-1.2,32.9,10.9,46.1c3.6,3.9,7.9,7.6,12.5,10.1c9.5,5.2,15.9,13.1,21,22.2
		c8.2,14.7,13.5,30.6,18,46.8c0.3,1.2,0.7,2.4,1,3.5c0.3,0,0.6,0.1,0.9,0.1c1.1-5.3,2.5-10.6,3.1-15.9c3.8-30.9-9.2-55.1-31.1-75.4
		c-5.8-5.4-12.3-9.9-18.8-14.4C520.4,171.1,513.9,164.1,511.4,153.9z"/>
	<path class="st0" d="M466.5,429.1c-10-5.2-20.5-8.5-32-8.2c-4.4,0.1-5.4,1.4-4.4,5.8c1.2,5.1,5,8.1,9.5,9.7
		c5.8,2,11.8,4.1,17.8,4.8c14,1.6,26.4,6.7,37.6,14.9c2.5,1.8,5,3.7,7.5,5.5C492.8,448.1,481.2,436.8,466.5,429.1z"/>
	<path class="st0" d="M467,465.3c-3.3,8.6-6.2,17.2-9.9,25.6c-2.5,5.8-6.2,11.2-12,14.2c-11,5.8-19.8,17.8-16.3,35.4
		c2.2-7.3,7.3-11.4,13-15.4c5.1-3.6,10.1-7.7,14.3-12.3c13.1-14.4,18.1-31,12.2-51.2C467.6,463.4,467.4,464.4,467,465.3z"/>
	<path class="st0" d="M513.1,399.7c-23.7-9.3-48.2-13-73.5-8.8c-6.8,1.2-13.6,3.2-20.3,4.8c1.2,0.8,2.3,0.9,3.3,0.8
		c14.2-1.9,27.9-0.2,41.3,4.5c17.1,6.1,34,12.4,52.2,14.5c9,1.1,18.1,1.8,27.2,2.7c0.1-0.3,0.1-0.6,0.2-0.8c-8.4-3-15.6-8-22.5-13.6
		C518.7,401.9,515.9,400.7,513.1,399.7z"/>
	<path class="st0" d="M421.5,374.2c2.6-0.5,5.2-0.9,7.7-1.6c4.6-1.3,9.4-2.4,13.8-4.2c14-5.8,28.6-7,43.6-7.6
		c-6.4-1.9-12.7-3.9-19.1-5.6c-17.1-4.4-32-0.7-44.6,11.9c-1.3,1.3-2.4,2.8-3.3,4.4C418.6,373.4,419.1,374.7,421.5,374.2z"/>
	<path class="st0" d="M409.1,504.4c-3.7,14.8-10.8,27.5-22.9,37c-3.7,2.9-7.8,5.2-11.6,8c-4.5,3.3-6.4,7.9-5.3,13.3
		c1.2,6.4,5.3,11.2,9.7,16.7c0-1.3,0.1-1.8,0-2.2c-2.9-16.3,1.4-26,15.5-34.9c5.1-3.2,8.9-7.6,11.4-13c4-8.4,4.6-17.3,3.6-26.5
		C409.4,503.4,409.3,503.9,409.1,504.4z"/>
	<path class="st0" d="M374.5,519.9c-6.2-6.2-13.9-10-22.4-14.1c1.4,2,2.3,3.2,3,4.5c4.9,8.2,5.8,16.6,1.2,25.2
		c-1.7,3.1-3.4,6.2-5.2,9.3c-5.6,9.6-11.5,19.1-14,30.1c-1.8,7.8-1.4,15.4,2.4,22.6c-1-7.8,0.1-15.3,2.1-22.7
		c5.1-18.6,16.9-32.3,32-43.4C378.8,527.4,379.1,524.5,374.5,519.9z"/>
	<path class="st0" d="M387.2,235.7c3.4-1.6,7.1-2.6,10.6-4.1c4.4-1.9,9-3.6,13-6.2c8.7-5.9,12.9-14.5,12.5-26.2
		c-3.7,6-9.1,7.6-14.7,8.6c-5.6,1-11.3,1.7-17,2.3c-11.9,1.2-16.4,4.8-18.7,16.4c-1.8,8.9-1.3,17.8,0.2,26.9
		C373.3,243.8,379.6,239.1,387.2,235.7z"/>
	<path class="st0" d="M425,257.1c4.7-1.5,7.9-4.7,9.1-9.5c1.3-5.3-1.6-15.4-5.2-19.5c-3.7,13.8-15,21.5-25.5,30.5
		C410.9,259.9,418,259.4,425,257.1z"/>
	<path class="st0" d="M212,237.6c6.4,3.3,10.3,8.6,10.5,16.3c0.5-3.3,0.9-6.6,1.2-9.8c0.5-7.8,0-15.6-2.6-23.1
		c-2.1-6.1-6.3-9.5-12.9-10.3c-7.8-0.9-15.6-2.1-23.4-3.5c-5.1-0.9-9.7-2.9-12.8-8.7c0,8.4,1.8,15.1,6.4,20.9
		c5,6.4,12,9.7,19.5,12.2C202.7,233.4,207.5,235.3,212,237.6z"/>
	<path class="st0" d="M166.5,227.7c-2.7,4.9-4.8,9.6-5.1,15c-0.4,8.1,2.9,13,10.7,14.9c4.8,1.1,10,1.2,15,1.6
		c1.6,0.1,3.2-0.4,5.2-0.6C181.7,249.6,170.6,241.9,166.5,227.7z"/>
	<path class="st0" d="M234.2,206.5c-5.2-8.2-7.3-17.4-9-26.8c-1.5-8.2-5.1-15.6-12.1-22.3c-0.2,2-0.2,3.1-0.5,4.2
		c-1.4,6.6-2.3,13.3-4.4,19.7c-1.3,4.1-1.5,7.6,0.7,11.1c6.9,10.9,17,17.3,29.9,20.9C237,210.6,235.5,208.6,234.2,206.5z"/>
	<path class="st0" d="M298.9,511c1.3,1.6,2.9,3.4,4.5,5.2c6.7,7.5,8.9,15.9,4,25c-3.1,5.8-7,11.3-11.2,16.4c-4,4.7-9,8.6-13.4,12.9
		c-9,9-10.4,16.7-5.1,28.4c2.6,5.7,5.2,11.5,8.1,17.1c2.8,5.6,5.9,11,8.9,16.5c0.1-0.1,0.3-0.2,0.4-0.3c-1.4-6.6-3.2-13.1-4-19.7
		c-1.8-13.8,0.8-26.6,11.1-36.8c4-4,8.3-7.6,12.5-11.3c5.9-5.3,10.7-11.4,12.9-19.2c2.2-7.6,1.6-14.9-3.8-21
		C317.1,516.5,307.9,513.2,298.9,511z"/>
	<path class="st0" d="M279.1,535.5c4.6-8.4,3.7-18.7-2.2-24.7c0.4,5.4-2.9,8.9-6.1,12.3c-3.3,3.5-6.8,6.8-10.2,10.3
		c-2.6,2.7-3.6,5.9-2.7,9.7c2,7.8,7,13.5,12.3,19c-1.8-5.5-1.6-9,1.7-14.9C274.1,543.2,276.9,539.5,279.1,535.5z"/>
	<path class="st0" d="M233.2,535.1c-3.7-6.9-3.8-14.1-0.5-21.2c1.2-2.6,2.8-5,4.3-7.7c-1.1,0.5-2.1,0.7-2.9,1.2
		c-4.9,2.9-10,5.7-14.8,8.8c-2.2,1.4-4.1,3.4-5.7,5.4c-2.8,3.5-2.3,6,1.2,8.7c3.2,2.4,6.5,4.8,9.4,7.5c14,12.6,23.6,27.7,25.6,46.9
		c0.4,3.7,0.5,7.5,0.7,11.3c0.3,0,0.6,0.1,0.9,0.1c0.6-3.7,1.6-7.3,1.9-11c0.6-8.6-2-16.6-5.9-24.1
		C243,552.3,237.9,543.8,233.2,535.1z"/>
	<path class="st0" d="M211.7,546.9c-10.5-6.1-18.9-14.3-24.3-25.1c-3-5.9-5.1-12.2-7.7-18.6c-0.4,17.1,2.7,32,18.9,41.3
		c7.5,4.3,12,11.3,12.8,20.1c0.5,4.9,0.1,10,0.1,15c0.6-1.7,2-3.4,3.2-5.2c1.1-1.6,2.2-3.2,3.2-4.9
		C223.2,559.9,221.3,552.5,211.7,546.9z"/>
	<path class="st0" d="M245.8,98.1c-5.2-19.4-27-35.6-43.1-32.4C218.7,74.2,234.1,83.4,245.8,98.1z"/>
	<path class="st0" d="M232.2,51.4c8.2,2,14.4,6.7,20.2,12c16.4,15,29.4,32.8,41.8,51.1c1.2,1.8,2.1,3.8,3.3,5.9c-0.2,0,0,0.1,0,0
		c0.6-1,1.1-2.1,1.8-3.1c12.8-19.2,26.4-37.9,43.5-53.7c5.8-5.4,12.1-10.3,20.1-12.3c-4,0.2-8,0.1-11.8,1
		c-12.2,2.7-22,9.8-31.5,17.8c-3.7-15,0.3-49.7,20.5-65.7c-6.1,2.8-11.2,7-15.7,11.9c-13,14.1-19.7,31.3-23.6,49.7
		c-1.1,5.4-2,10.9-3,16.4c-1.5-6.1-2.4-12.2-3.7-18.2c-3.8-16.9-10.1-32.6-21.4-46c-5.2-6.1-12.3-11.8-16.6-13.1
		c18.8,17.7,21.7,40.4,20.3,65.6C263.2,59.6,250.1,50.5,232.2,51.4z"/>
	<path class="st0" d="M350.4,96c5.9-5.1,12.3-11.2,19.3-16.4c7.2-5.2,15-9.5,22.4-14.1C372.2,64.9,354.9,79.8,350.4,96z"/>
	<path class="st0" d="M580.7,372.2c-2.1-16.9-10.8-30.2-23.2-41.4c-13-11.8-28.4-19.8-44.2-27c-20.2-9.1-36.2-22.8-46.2-43
		c-0.2-0.4-0.6-0.8-1.2-1.5c-0.9,4.9-1.9,9.3-2.6,13.7c-2.2,13.8-3.1,27.6,0.4,41.3c5.8,23.5,25.6,32.4,43.3,30.7
		c-10.2-6.3-15.7-15.3-16.6-27.4c36.4,9.4,73.4,42.4,84.6,93.6C579.9,398.2,582.3,385.5,580.7,372.2z"/>
	<path class="st0" d="M144,368.5c8.1,1.6,15.9,5.1,23.9,7.5c3,0.9,6.2,1.4,9.4,1.9c2.7,0.4,3-1.1,1.8-3.1c-0.6-1-1.3-1.9-2.1-2.8
		c-10.9-11.6-24.3-16.7-40.1-13.9c-8.9,1.6-17.5,4.5-24.9,6.4C122,365.7,133.2,366.4,144,368.5z"/>
	<path class="st0" d="M148.3,505.1c-2-1.2-3.9-2.8-5.5-4.6c-6.2-6.9-9.6-15.3-12.7-23.9c-1.7-4.7-3.1-9.4-4.8-14.9
		c-2.9,9.3-3.3,17.8-1.2,26.5c4.1,16.7,14.9,28.4,28.7,37.7c5.3,3.6,9.7,7.6,12,14.8C167,523.2,162.2,513.4,148.3,505.1z"/>
	<path class="st0" d="M166.3,424.7c-3.2-0.1-6.4,0-9.6,0.5c-26.4,3.7-44.5,19.9-60,40c0.4-0.3,0.9-0.5,1.3-0.8
		c13.6-10.9,28.6-18.3,46.4-19.8c6.9-0.6,13.7-2.7,19.6-6.9c3.7-2.6,5.6-6.1,4.8-10.6C168.6,426.1,167.2,424.7,166.3,424.7z"/>
	<path class="st0" d="M180.7,400.6c-12.5-5.1-25.6-7.2-39-7.7c-15.1-0.5-30,1.9-44.3,6.7c-7,2.4-14,5.2-20.4,8.8
		c-6.9,3.8-13.3,8.8-19.7,13.2c3.9-0.3,8.5-0.5,13-0.9c17.2-1.3,34-4.7,50.2-10.8C139.9,402.5,159.4,396.3,180.7,400.6z"/>
	<path class="st0" d="M100.2,333.6c-3.2,4.4-7.2,8.1-10.5,11.7c20.4,1.6,37.6-11,42.4-31.8c2.5-10.6,2.6-21.4,1.2-32.2
		c-0.9-7.3-2.4-14.6-3.8-22.8c-11.2,23.6-29.5,37.5-51.8,47.6c-11.1,5-21.9,11.3-31.8,18.4c-23.4,16.8-35.8,39.1-30.5,68.7
		c1,5.8,2.8,11.4,4.3,17.1c0.3,0,0.6-0.1,1-0.1c5-21.8,14.5-41.3,29.4-58C65,335.6,83.2,324,105,317.3
		C105,323.7,103.4,329.1,100.2,333.6z"/>
	<path class="st0" d="M20,282.7c0.3,0,0.6-0.1,0.9-0.1c0.3-1.2,0.7-2.4,1-3.5c4.5-16.2,9.7-32,17.9-46.8c5.1-9.1,11.5-17,21-22.2
		c4.6-2.5,8.9-6.2,12.5-10.1c12-13.2,14.1-29,10.9-46.1c-2.6,10.2-9.1,17.2-17.4,23.1c-6.5,4.5-13.1,9.1-18.8,14.4
		c-21.8,20.3-34.8,44.5-31.1,75.4C17.6,272.2,19,277.5,20,282.7z"/>
	<path class="st0" d="M394.9,121.6c9.5,2.7,16.3,9.2,23,15.8c12.4,12.4,22.6,26.5,32.5,40.9c3.7,5.3,7.2,10.8,10.9,16.5
		c0.5-1.2,0.9-1.9,1-2.6c0.3-1.8,0.7-3.6,0.8-5.4c1.3-15.4-3.6-29-13-41c-2.2-2.8-2.8-5.5-1.7-8.5c1.7-4.7,3.8-9.3,5.8-14
		c-10.5-4.8-14.4-13.5-10.6-25.1c3.3-10,9.9-17.5,18.8-23c10.3-6.4,21.6-6.5,33-5.2c9.4,1.1,17.8,5,23.5,12.8
		c3.3,4.4,5.4,9.7,7.7,13.8c-0.2-2.4-0.3-5.8-0.8-9.1c-2.8-18.5-12.8-33.3-32.6-38.5c-11-2.9-22.1-2.5-33.2-1.2
		c-27.4,3.4-47.5,17-59.2,42.3c-3.9,8.5-6.3,17.5-7.5,26.7C393.3,118.5,394,121.4,394.9,121.6z"/>
	<path class="st0" d="M91.3,72.2c6.8-2.6,13.9-2.8,21-2.7c16.7,0.2,32.3,10.6,38.6,26c5.3,12.9,1.1,23.7-9.8,27.8
		c-0.2,0.1-0.3,0.3-0.6,0.8c4.3,4.2,6.2,9.7,7,15.6c0.2,1.4-0.2,3.3-1.1,4.4c-7.8,10.1-13.1,21.2-14.3,34.1c-0.5,5.6,0.3,11,1.9,17
		c0.8-1.3,1.2-1.8,1.6-2.4c11.7-18.3,24-36.2,38.9-52.1c7.5-8,15.2-16,26.4-19.1c0.7-0.2,1.5-1.7,1.4-2.5c-0.5-3.7-1-7.5-1.9-11.2
		c-4.9-20.7-14.9-38-33.4-49.3c-15.4-9.5-32.5-11.9-50.2-11.4c-9.8,0.3-19.2,2.1-27.5,7.6c-15,9.9-19.7,24.8-19.8,41.9
		c0.2-0.8,0.5-1.5,0.7-2.3C73.9,83.8,80.7,76.3,91.3,72.2z"/>
	<path class="st0" d="M386.7,192.1c2-3.5,2.5-6.9,0.6-10.7c-1.3-2.6-2.1-5.6-2.7-8.5c-1-5-1.6-10-2.4-15.1c-0.3-0.1-0.6-0.3-0.9-0.5
		c-2.6,4.2-5.9,8.2-7.7,12.7c-2.2,5.3-3.2,11.1-4.5,16.8c-2.1,9.4-5.9,18-11.4,26.1c2-0.7,4.2-1.2,6.1-2.1
		C373.2,206.9,381.4,201.2,386.7,192.1z"/>
	<path class="st0" d="M415.3,318.6c4.1,4.1,8.1,8.1,12,12c-1.5-9.7-0.2-18.5,4.6-26.7c0.9-1.6,1.7-3.3,2.4-5c2-4.7,2.1-5-2.7-6.8
		c-10.8-3.8-21.9-6.8-32.5-11c-9.7-3.8-19.3-8.4-24.6-19.1c-1.9,4-3.9,7.6-5.3,11.4c-2,5.5-0.1,9.1,5.5,11c2.2,0.7,4.5,1.1,6.7,1.6
		c8.6,2.3,9.3,3.2,10.1,12.1c0.1,0.8,0.5,1.6,0.3,2.4c-0.8,3.6-1.1,7.5-2.7,10.7c-1.5,3.1-4.5,2.8-6.6-0.1c-0.7-1-1.1-2.3-2-3.2
		c-1-1-2.4-1.7-4.4-3.1c0.2,1.8,0.2,2.4,0.4,2.9c5.2,17.1,3.3,33.7-2.4,50.3c-1.7,5-5.1,7.7-9.7,8.7c-4.1,0.9-8.5,1.6-12.5,1
		c-8.4-1.3-16.8-3.4-25.1-5.4c-4.4-1.1-8.6-2.6-13.1-4c2.2-5.6,10.4-4.5,11.1-11c-1.7-0.8-3.2-1.5-4.9-2.3c2-2.5,3.6-4.7,5-6.4
		c-3.3-1.4-6.5-2-8.8-3.8c-2.1-1.6-3.7-4-4.8-6.8c0,0,0.1-0.1,0.1-0.1c-0.5-1-0.9-2.1-1.3-3.3c-1.3-5.1-1.2-10.7,0.8-14.8
		c0.5-1.1,1.2-2,2-2.8c0.1-0.1,0.2-0.2,0.3-0.3c4.2-1.6,7.2-0.6,9.4,3.4c0.4,0.8,0.7,1.6,1.2,2.4c2.7,4.9,6.4,5.5,9.7,1.1
		c0.6-0.8,1.2-1.7,1.7-2.6c1.3-1.3,1.9-2.5,1.9-3.6c0.9-1.7,1.8-3.5,2.8-5.1c2.5-4.1,5-8.2,7.9-12.1c2.3-3,1.3-13.2-2-14.8
		c-0.6-0.3-2-0.2-2.4,0.3c-0.7,0.9-1.5,2.2-1.4,3.2c0.3,2.4,1.4,4.7,1.6,7c0.1,1.8-0.6,3.7-1,5.6c-1.8-0.9-3.8-1.7-5.5-2.8
		c-1.1-0.8-1.8-2.5-3-2.9c-1.3-0.5-3.5-0.5-4.4,0.2c-3.7,3.1-7.8,5.2-12,6.6c-6.5,1.2-13,2.1-19.7,2.3c-0.1,0-0.1,0-0.2,0
		c-0.1,0-0.1,0-0.2,0c-6.6-0.2-13.2-1-19.7-2.3c-4.2-1.4-8.3-3.5-12-6.6c-0.9-0.8-3.1-0.7-4.4-0.2c-1.2,0.4-1.8,2.1-2.9,2.9
		c-1.7,1.1-3.6,1.9-5.5,2.8c-0.4-1.9-1.1-3.8-1-5.6c0.2-2.4,1.3-4.7,1.6-7c0.1-1-0.6-2.4-1.4-3.2c-0.4-0.5-1.7-0.6-2.4-0.3
		c-3.3,1.6-4.3,11.8-2,14.8c2.9,3.8,5.4,7.9,7.9,12.1c1,1.7,1.9,3.4,2.8,5.1c0,1.1,0.6,2.2,1.9,3.6c0.5,0.9,1.1,1.7,1.7,2.6
		c3.3,4.5,7.1,3.8,9.7-1.1c0.4-0.8,0.7-1.6,1.2-2.4c2.2-4.1,5.2-5.1,9.5-3.4c0.8,0.9,1.6,1.9,2.2,3.1c3.7,7.3,1.3,20-5.2,25
		c-2.3,1.8-5.4,2.4-8.8,3.8c1.3,1.7,3,3.9,4.9,6.4c-1.7,0.8-3.2,1.5-4.9,2.3c0.7,6.5,8.8,5.3,11.1,11c-4.5,1.4-8.7,2.9-13.1,4
		c-8.3,2-16.7,4.1-25.1,5.4c-4,0.6-8.5-0.1-12.5-1c-4.6-1-7.9-3.7-9.7-8.7c-5.7-16.6-7.6-33.2-2.4-50.3c0.2-0.5,0.1-1.1,0.4-2.9
		c-2,1.4-3.4,2.1-4.4,3.1c-0.9,0.9-1.2,2.2-2,3.2c-2.1,2.8-5.1,3.1-6.6,0.1c-1.6-3.2-2-7.1-2.7-10.7c-0.2-0.7,0.2-1.6,0.3-2.4
		c0.8-8.9,1.5-9.8,10.1-12.1c2.2-0.6,4.5-0.9,6.7-1.6c5.6-1.9,7.5-5.5,5.5-11c-1.4-3.8-3.4-7.4-5.3-11.4
		c-5.3,10.7-14.9,15.3-24.6,19.1c-10.6,4.2-21.8,7.2-32.5,11c-4.8,1.7-4.7,2.1-2.7,6.8c0.7,1.7,1.5,3.4,2.4,5
		c4.8,8.2,6.1,16.9,4.6,26.7c4-3.9,7.9-7.9,12-12c-1.2,14.8-9.2,28.5-6.6,43.5c1.4-1,2.8-2.8,4.2-2.8c1.6-0.1,3.4,1.2,4.7,2.3
		c5.4,4.7,8.4,11.1,11.1,17.6c6,14.3,9.6,29.3,11.9,45.3c4.5-6.3,6.5-12.8,6.9-19.9c0.6-10.8-2.8-20.8-6.5-30.7
		c-3.4-9-6.6-18.1-10.1-27.1c-1.2-3.2,0.3-4.4,3.1-4.9c8.7-1.7,10.2-1,13.1,7.3c6,17.6,7.4,35.6,5.8,54
		c-1.7,19.7-6.4,38.6-14.7,56.6c-1.8,3.9-4.2,7.7-6,11.6c-0.5,1.1-0.6,2.9-0.1,3.9c2.2,4.4,2.1,8.6,0.9,13.3
		c-3.3,14-1.1,27.2,6.8,40.5c0.6-2.7,0.9-4.5,1.4-6.2c0.8-2.9,1.5-5.8,2.7-8.5c2.1-5.2,5.4-6.6,10.8-5.2c0.9,0.2,1.7,0.5,2.5,0.7
		c2.5-4.3,0.8-6.6-2.6-8.8c-5.5-3.7-11.1-7.7-13.3-14.4c-1.3-3.8-1.8-8-2-12.1c-0.2-5.7,5.6-10.9,11.5-10.4
		c-3.8-22.7,10.9-46.4,10.5-42.7c-1.7,16.6,7,48.2,2.3,48.4c-4.5,0.3-3.1,0.1-7.6,0.1c-4.1,0-4.8,0.6-3.8,4.6
		c2.1,7.7,4.5,15.3,6.7,23c0.4,0.1,0.7,0.2,1.1,0.3c1.2-1.8,2.6-3.5,3.6-5.4c2.8-5.5,3.1-5.6,9.2-5.1c0.4,0,0.8,0,1.2,0.1
		c4.9,10.5,10.1,13.1,13.6,14.6c6.3,5.7,14.8,2,23,0.6c0,0,10.6,2.2,21.9,2.2c11.2,0,22.2-2.2,22.2-2.2c8.2,1.5,16.7,5.2,23-0.6
		c3.5-1.5,8.7-4.1,13.6-14.6c0.4,0,0.8,0,1.2-0.1c6.1-0.5,6.4-0.3,9.2,5.1c1,1.9,2.4,3.6,3.6,5.4c0.4-0.1,0.7-0.2,1.1-0.3
		c2.3-7.7,4.7-15.3,6.7-23c1.1-4,0.4-4.6-3.8-4.6c-4.5,0-3.1,0.2-7.6-0.1c-4.7-0.3,4.1-31.8,2.3-48.4c-0.4-3.8,14.4,20,10.6,42.7
		c5.9-0.4,11.7,4.7,11.4,10.4c-0.2,4.1-0.7,8.3-2,12.1c-2.2,6.7-7.8,10.7-13.3,14.4c-3.4,2.2-5,4.6-2.6,8.8c0.7-0.2,1.6-0.5,2.5-0.7
		c5.4-1.4,8.6,0,10.8,5.2c1.1,2.7,1.8,5.6,2.7,8.5c0.5,1.7,0.8,3.6,1.5,6.2c7.9-13.3,10.1-26.5,6.8-40.5c-1.1-4.7-1.2-8.9,0.9-13.3
		c0.5-1.1,0.4-2.8-0.1-3.9c-1.8-3.9-4.2-7.7-6-11.6c-8.2-18-13-36.9-14.7-56.6c-1.6-18.4-0.2-36.4,5.8-54c2.8-8.3,4.4-9,13.1-7.3
		c2.9,0.6,4.4,1.7,3.1,4.9c-3.4,9-6.7,18.1-10.1,27.1c-3.7,9.9-7.1,19.9-6.5,30.7c0.4,7.1,2.5,13.6,6.9,19.9
		c2.3-16,5.9-31,11.9-45.3c2.7-6.5,5.7-12.8,11.1-17.6c1.3-1.2,3.2-2.4,4.7-2.3c1.4,0.1,2.8,1.8,4.2,2.8
		C424.5,347.1,416.5,333.4,415.3,318.6z M268,373c2.8-5.5,6.9-2.9,10.4,6.4c2.6-4.5,5.5-3.7,8.7,1.6c3-4.6,6.5-4.5,10.5,0
		c4-4.5,7.5-4.6,10.5,0c3.2-5.2,6.2-6,8.7-1.6c3.5-9.3,7.7-11.9,10.4-6.4c4.3,8.4,2.6,17,0,22.6c-4.6-1.9-8.2-5.1-10.6-10.2
		c-2.1,6.4-5.3,6.9-9.7,1.3c-4.6,8-7.5,4.4-9.4-5.7c-2,10.1-4.9,13.7-9.4,5.7c-4.4,5.5-7.6,5.1-9.7-1.3c-2.3,5.1-6,8.3-10.6,10.2
		C265.4,390,263.8,381.5,268,373z M275.3,439.7c-2-2.1-1.7-4.2,0.8-5.7c3.2-1.9,6.8-2.7,10.6-2.4c2.1,0.2,3.5,1.6,4.6,3
		c2.7,3.3,4.5,7,5.9,10.9c0.1,0.4,0.3,0.7,0.5,1.1v0.1c0.2-0.4,0.4-0.8,0.5-1.3c1.4-3.9,3.2-7.7,5.9-10.9c1.2-1.5,2.6-2.8,4.6-3
		c3.8-0.3,7.3,0.4,10.6,2.4c2.5,1.5,2.8,3.6,0.8,5.7c-2.4,2.5-2.7,5.5-1.9,8.6c0.6,2.4,2.1,4.3,3.9,6c-0.8,1.2-1.5,2.4-2.3,3.5
		c-1.9,2.7-4.2,5.1-7.7,5.7c-2.4,0.4-4.8,0.6-7.2,0.7c-2.4,0.1-4.8,0-7.3,0v0.1c-2.4,0-4.8,0.1-7.2-0.1c-2.4-0.1-4.8-0.4-7.2-0.7
		c-3.6-0.6-5.8-3-7.7-5.7c-0.8-1.1-1.5-2.3-2.3-3.5c1.8-1.7,3.3-3.7,3.9-6C278,445.2,277.7,442.2,275.3,439.7z M235.8,376.9
		c7.2-7.3,16.6-7.5,24.3-1.4c-6.9,12.3-8.3,27.4-7.6,43.6c0.1,2.8-3.5,4.1-5.2,1.8C238.9,409.5,236.9,393.4,235.8,376.9z M259,493
		c-14.5-10.7-18-27.7-15.4-48c0.2-1.7,2.6-2.1,3.3-0.5c5.6,12.7,12.7,21.7,21.4,26.3C268.3,483.1,265.4,491,259,493z M312,490.4
		c-2.1,2.5-4.2,1.9-6.2-0.9c-2.6,3.5-5.8,3.2-8.2-0.9c-2.4,4.1-5.6,4.4-8.2,0.9c-2,2.8-4,3.3-6.2,0.9c-3.5,4.9-10.3,6.3-10.9-0.7
		c-0.4-4.5,7-16.5,7-16.5l4.3,12.7c0,0,1.2-7.6,3.2-7.6c2.2,0.1,2.9,8.5,2.9,8.5s1.3-8.8,3.7-8.8c2.9,0,4.1,10.6,4.1,10.7
		c0-0.1,1.2-10.6,4.1-10.7c2.4,0,3.7,8.8,3.7,8.8s0.6-8.4,2.9-8.5c2.1-0.1,3.2,7.6,3.2,7.6l4.3-12.7c0,0,7.4,12.1,7,16.5
		C322.4,496.7,315.5,495.3,312,490.4z M336.5,493c-6.4-2-9.3-9.8-9.3-22.3c8.8-4.6,15.8-13.6,21.4-26.3c0.7-1.6,3.1-1.2,3.3,0.5
		C354.4,465.3,351,482.2,336.5,493z M348.3,420.8c-1.7,2.3-5.3,1.1-5.2-1.8c0.7-16.2-0.8-31.3-7.6-43.6c7.7-6.1,17-5.9,24.3,1.4
		C358.5,393.4,356.5,409.5,348.3,420.8z"/>
</g>
</svg>
